<svg xmlns="http://www.w3.org/2000/svg" xmlns:xlink="http://www.w3.org/1999/xlink" width="50" zoomAndPan="magnify"
  viewBox="0 0 37.5 37.499999" height="50" preserveAspectRatio="xMidYMid meet" version="1.0">
  <defs>
    <clipPath id="0a6f3f8bec">
      <path d="M 0 1.480469 L 37 1.480469 L 37 37.007812 L 0 37.007812 Z M 0 1.480469 " clip-rule="nonzero" />
    </clipPath>
  </defs>
  <g clip-path="url(#0a6f3f8bec)">
    <path fill="#545454"
      d="M 0.0078125 1.652344 L 18.472656 6.269531 L 18.472656 37.007812 L 0.0078125 32.394531 Z M 36.761719 16.433594 L 30.605469 10.277344 C 30.410156 10.085938 30.1875 10.042969 29.933594 10.148438 C 29.679688 10.25 29.550781 10.4375 29.554688 10.714844 L 29.554688 14.40625 L 19.089844 14.40625 L 19.089844 19.332031 L 29.554688 19.332031 L 29.554688 23.023438 C 29.554688 23.300781 29.679688 23.488281 29.933594 23.589844 C 30.007812 23.625 30.085938 23.640625 30.167969 23.640625 C 30.339844 23.640625 30.484375 23.582031 30.605469 23.460938 L 36.761719 17.304688 C 36.882812 17.183594 36.941406 17.039062 36.941406 16.871094 C 36.941406 16.699219 36.882812 16.554688 36.761719 16.433594 Z M 19.703125 5.789062 L 19.703125 13.175781 L 23.398438 13.175781 L 23.398438 1.480469 L 4.390625 1.480469 L 19.238281 5.191406 C 19.375 5.226562 19.488281 5.296875 19.574219 5.410156 C 19.660156 5.519531 19.703125 5.648438 19.703125 5.789062 Z M 19.703125 32.257812 L 23.398438 32.257812 L 23.398438 20.5625 L 19.703125 20.5625 Z M 19.703125 32.257812 "
      fill-opacity="1" fill-rule="nonzero" />
  </g>
</svg>