<?xml version="1.0" encoding="UTF-8" standalone="no" ?>
<!DOCTYPE svg PUBLIC "-//W3C//DTD SVG 1.1//EN" "http://www.w3.org/Graphics/SVG/1.1/DTD/svg11.dtd">
<svg xmlns="http://www.w3.org/2000/svg" xmlns:xlink="http://www.w3.org/1999/xlink" version="1.1" width="1080"
  height="1080" viewBox="-216 146 1080 1080" xml:space="preserve">
  <defs>
  </defs>
  <rect x="0" y="0" width="100%" height="100%" fill="transparent"></rect>
  <g transform="matrix(1 0 0 1 540 540)" id="f4a60201-2962-4733-9169-a1251d5ba428">
    <rect
      style="stroke: none; stroke-width: 1; stroke-dasharray: none; stroke-linecap: butt; stroke-dashoffset: 0; stroke-linejoin: miter; stroke-miterlimit: 4; fill: rgb(255,255,255); fill-rule: nonzero; opacity: 1; visibility: hidden;"
      vector-effect="non-scaling-stroke" x="-540" y="-540" rx="0" ry="0" width="1080" height="1080" />
  </g>
  <g transform="matrix(1 0 0 1 540 540)" id="c9b6c122-0be9-4de7-8941-aa4089af95d3">
  </g>
  <g transform="matrix(1.84 0 0 1.84 338.62 658.86)">
    <path
      style="stroke: none; stroke-width: 1; stroke-dasharray: none; stroke-linecap: butt; stroke-dashoffset: 0; stroke-linejoin: miter; stroke-miterlimit: 4; fill: rgb(255,255,255); fill-rule: nonzero; opacity: 1;"
      transform=" translate(-293.97, -82.49)"
      d="M 98.77 0.33 L 0 46.07 L 24.61 139.73 L 43.34 137.42999999999998 L 38.190000000000005 78.53999999999998 L 44.34 75.79999999999998 L 54.96 136 L 86.97 132.07 L 81.28 67.07 L 87.37 64.36 L 99.05000000000001 130.59 L 131.43 126.61 L 125.2 55.36 L 131.36 52.62 L 144.13000000000002 125.05000000000001 L 176.14000000000001 121.12 L 176.14000000000001 19.71 L 98.77 0.33 z M 101.08999999999999 142.38000000000002 L 102.71999999999998 151.60000000000002 L 176.14 163.84000000000003 L 176.14 133.16000000000003 L 101.12999999999998 142.38000000000002 L 101.08999999999997 142.38000000000002 z M 245.57999999999998 123.16000000000003 L 245.57999999999998 135.79000000000002 L 261.15 135.79000000000002 C 261.1516164365677 138.35153569968614 260.49016454004607 140.86987599321384 259.22999999999996 143.10000000000002 C 257.91247546394686 145.32187133347256 255.96289504246496 147.1008634680748 253.62999999999997 148.21000000000004 C 250.840574358001 149.48441944763763 247.79543438599111 150.1002904532127 244.72999999999996 150.01000000000005 C 241.1903770573015 150.1080653175253 237.7040355398523 149.13188969263953 234.72999999999996 147.21000000000004 C 231.82526233155113 145.19358249997367 229.58403782110423 142.36073040136534 228.28999999999996 139.07000000000005 C 226.67661143848406 134.95507557060807 225.9047295337384 130.5584090382903 226.01999999999995 126.14000000000004 C 225.90196201363756 121.75572250363452 226.69183409638327 117.39440294330146 228.33999999999995 113.33000000000004 C 229.68749767801003 110.09089858498135 231.9453320219743 107.31202554625608 234.83999999999995 105.33000000000004 C 237.7585197875555 103.43519915554467 241.18134978320134 102.46621062317243 244.65999999999994 102.55000000000004 C 246.4711224937797 102.53412341003043 248.27547234709922 102.7731324391082 250.01999999999995 103.26000000000003 C 251.571991582023 103.70455574014602 253.03646136151073 104.41142452516435 254.34999999999997 105.35000000000004 C 255.59729769694587 106.24873705337814 256.67418208254537 107.3628721567185 257.53 108.64000000000004 C 258.42483189111084 110.00626069274921 259.09970854281653 111.50448685953582 259.53 113.08000000000004 L 276.79999999999995 113.08000000000004 C 276.34799017929976 109.45591474404164 275.1712990517456 105.95984977547036 273.34 102.80000000000003 C 271.51781879838614 99.68244893583307 269.12637211554545 96.93482934278207 266.28999999999996 94.70000000000005 C 263.31765176472715 92.37652053695585 259.96454716313013 90.58661908968561 256.37999999999994 89.41000000000003 C 252.4868128327086 88.14283784204662 248.41406403680628 87.51470245561391 244.3199999999999 87.55000000000004 C 239.52971464921487 87.51010372904526 234.77654542936006 88.39283515558971 230.31999999999994 90.15000000000003 C 226.03795197537505 91.8550969197384 222.16613304594986 94.44880660749592 218.95999999999992 97.76000000000003 C 215.60515581776082 101.2590877137396 213.0137470176019 105.41691970453334 211.3499999999999 109.97000000000004 C 209.44990626566855 115.2389297907976 208.52482657625714 120.80973934901134 208.61999999999992 126.41000000000005 Q 208.61999999999992 138.35000000000002 213.1599999999999 147.00000000000003 C 216.0219351148761 152.55444005329616 220.42892165178282 157.16284914271714 225.84999999999988 160.27 C 236.98874842857822 166.21287915617862 250.28506272738875 166.524511522557 261.68999999999994 161.11000000000004 C 266.5563073013863 158.64106555422967 270.6079835460351 154.82200482662583 273.35999999999996 150.11000000000004 Q 277.60999999999996 142.92000000000004 277.59999999999997 132.91000000000005 L 277.59999999999997 123.15000000000005 z M 460.61 163.97000000000003 L 460.61 88.53 L 512.28 88.53 L 512.28 102.49000000000001 L 477.65999999999997 102.49000000000001 L 477.65999999999997 119.25000000000001 L 505.65 119.25000000000001 L 505.65 133.21 L 477.65999999999997 133.21 L 477.65999999999997 150.01000000000002 L 512.36 150.01000000000002 L 512.36 163.97000000000003 L 460.61 163.97000000000003 z M 562.44 110.67000000000003 C 562.2862755965248 108.04591238838513 560.9930371098154 105.62017692178908 558.9000000000001 104.03000000000003 C 556.8100000000001 102.44000000000003 553.9000000000001 101.65000000000003 550.21 101.65000000000003 C 548.0785157552725 101.57885092112765 545.9532418277397 101.91835154852906 543.95 102.65000000000003 C 542.4389733853296 103.20119537264765 541.1123015470872 104.16415822129352 540.12 105.43000000000004 C 539.260400046255 106.58683931850614 538.7942612343569 107.98876055729738 538.79 109.43000000000004 C 538.7432114154824 110.57870035846965 539.0167308602682 111.71778766650213 539.5799999999999 112.72000000000004 C 540.1731621983217 113.71638173696965 540.9960588825785 114.55642210214846 541.9799999999999 115.17000000000004 C 543.134110872538 115.91818553828166 544.3770387982535 116.51949391315478 545.68 116.96000000000005 C 547.1990208985965 117.48924434481017 548.7484819030905 117.92669993013068 550.3199999999999 118.27000000000005 L 556.9499999999999 119.81000000000006 C 560.1996383520536 120.50114940794097 563.3672033092138 121.53354094953393 566.4 122.89000000000006 C 569.0305810377691 124.06275834506289 571.4602837273158 125.64206509326816 573.6 127.57000000000005 C 575.5590437041656 129.3542199649406 577.1196847909416 131.53162095718926 578.1800000000001 133.96000000000004 C 579.2898678338971 136.5805284972646 579.8383188390717 139.40454019471622 579.7900000000001 142.25000000000003 C 579.9022611794087 146.55712450632456 578.6644696481848 150.79149045070932 576.2500000000001 154.36 C 573.6978117950553 157.90395576833458 570.1718373661374 160.63094091779325 566.1000000000001 162.21 C 561.0236151292173 164.17023892393198 555.6099559846032 165.10819870039995 550.1700000000002 164.97 C 544.648986130733 165.0880057223939 539.15751908542 164.13370625440814 534.0000000000002 162.16 C 529.6567929371723 160.47290334434456 525.9215933562643 157.51819322810394 523.2800000000002 153.68 Q 519.4500000000002 148.02 519.2800000000002 139.56 L 535.7100000000002 139.56 C 535.7535886201944 144.0204898402327 538.5647834811571 147.9840752186681 542.7600000000001 149.5 C 545.070820746685 150.37814599048286 547.5283747394483 150.8058418511019 550.0000000000001 150.76 C 552.2681499987129 150.80945297031823 554.5259536382864 150.43993255483247 556.6600000000001 149.67 C 558.3455133926101 149.0749581604535 559.8407260286126 148.03901407084436 560.9900000000001 146.67 C 562.0033389960189 145.3963181341192 562.5565921088556 143.81760861468717 562.5600000000002 142.19 C 562.5754893685526 140.73054547707306 562.0722617456619 139.31300287738094 561.1400000000002 138.19 C 559.9975296433292 136.94386159820044 558.5799070011577 135.98165879034966 557.0000000000002 135.38 C 554.7688489110299 134.47068890353015 552.4637080416142 133.75472352464053 550.1100000000002 133.24 L 542.0400000000002 131.29000000000002 Q 532.3900000000002 128.99 526.8100000000002 124.03000000000002 Q 521.2300000000001 119.07000000000002 521.2700000000002 110.59000000000002 C 521.1525578702764 106.252079916841 522.4591613654015 101.99508143272342 524.9900000000002 98.47000000000003 C 527.639818185688 94.885399017924 531.2089136101182 92.08333087735011 535.3200000000003 90.36000000000001 C 540.0608146442141 88.34951384862852 545.1713178311122 87.3580762303703 550.3200000000003 87.45000000000002 C 555.4447858913294 87.33513169899639 560.5339921166702 88.32773157270563 565.2400000000002 90.36000000000001 C 569.2360758375692 92.09889105947269 572.6679790913453 94.9178307653998 575.1500000000002 98.50000000000001 C 577.5353589223122 102.08893205904441 578.7893924023616 106.31084477521102 578.7500000000002 110.62 z M 448.45000000000005 163.97000000000003 L 431.58000000000004 163.97000000000003 L 431.58000000000004 106.62000000000003 L 429.85 106.60000000000004 L 412.81 163.97000000000003 L 395.95 163.97000000000003 L 379.37 106.60000000000002 L 377.22 106.62000000000002 L 377.22 163.97000000000003 L 360.35 163.97000000000003 L 360.35 88.53 L 389.02000000000004 88.53 L 403.50000000000006 139.09 L 405.25000000000006 139.09 L 419.7300000000001 88.53 L 448.45000000000005 88.53 L 448.45000000000005 163.97 z M 333.7900000000001 163.97000000000003 L 352.06000000000006 163.97000000000003 L 326.7300000000001 88.54000000000002 L 303.5800000000001 88.54000000000002 L 278.2100000000001 163.97000000000003 L 296.5100000000001 163.97000000000003 L 301.4400000000001 147.43000000000004 L 328.8600000000001 147.43000000000004 z M 305.36000000000007 134.27000000000004 L 313.5800000000001 106.62000000000003 L 316.6800000000001 106.62000000000003 L 324.9400000000001 134.27000000000004 z M 583.94 96.51000000000005 C 582.3385170846334 96.50468755284588 580.8945729621527 95.54468110629192 580.2700000000001 94.07000000000005 C 579.8533050846647 93.07867505032793 579.8533050846647 91.96132494967217 580.2700000000001 90.97000000000006 C 580.4690814849622 90.49597392481593 580.7576808503417 90.06477252007251 581.1200000000001 89.70000000000006 C 581.4876743126031 89.3386849074951 581.9180141699197 89.0472736655326 582.3900000000001 88.84000000000006 C 583.3845398198571 88.43956708131209 584.4954601801431 88.43956708131209 585.4900000000001 88.84000000000006 C 585.9633174899292 89.04485441096904 586.3940777303824 89.33655032182715 586.7600000000001 89.70000000000006 C 587.1243758520293 90.06515910805207 587.4161980344096 90.49610581924152 587.6200000000001 90.97000000000006 C 588.0366949153355 91.96132494967217 588.0366949153355 93.07867505032793 587.6200000000001 94.07000000000005 C 587.4161980344096 94.54389418075858 587.1243758520293 94.97484089194803 586.7600000000001 95.34000000000005 C 586.3961052829078 95.70590552378226 585.9648451785704 95.99793992514464 585.4900000000001 96.20000000000005 C 584.9990975739981 96.40540754157563 584.472143601531 96.51079833606904 583.9400000000002 96.51000000000005 z M 583.94 95.42000000000004 C 584.4563434886737 95.42605784528176 584.9645677152411 95.29122284639655 585.4100000000001 95.03000000000004 C 585.8379995462983 94.78955758365666 586.1989778702418 94.44576870371044 586.46 94.03000000000004 C 586.9795538351635 93.12599959157248 586.9795538351635 92.0140004084276 586.46 91.11000000000004 C 586.1942261952005 90.694612369886 585.830152297097 90.35114642827895 585.4000000000001 90.11000000000004 C 584.4959995915725 89.59044616483655 583.3840004084277 89.59044616483655 582.4800000000001 90.11000000000004 C 582.0717395026418 90.35888041535623 581.7288804153563 90.70173950264169 581.4800000000001 91.11000000000004 C 580.9456909117739 92.01000639794951 580.9456909117739 93.12999360205058 581.4800000000001 94.03000000000004 C 581.7288804153563 94.4382604973584 582.0717395026418 94.78111958464386 582.4800000000001 95.03000000000004 C 582.9223188543112 95.28993640222582 583.4269791360673 95.4247429158456 583.9400000000002 95.42000000000004 z M 582.48 94.27000000000004 L 582.48 90.6 L 584.26 90.6 C 584.4985859308518 90.59514282528197 584.7349636119781 90.64652927770071 584.95 90.75 C 585.143332033196 90.84258713440634 585.306341112155 90.98825482198679 585.4200000000001 91.17 C 585.5372005194785 91.36980296864127 585.5960918516873 91.59843990545242 585.59 91.83 C 585.5977112977743 92.06309245714849 585.5349828270963 92.29309684963435 585.4100000000001 92.49 C 585.29846495355 92.67490804201495 585.130071364444 92.81874423270959 584.9300000000001 92.89999999999999 C 584.7106240480124 93.00014417254428 584.471017868198 93.04806540850716 584.23 93.03999999999999 L 583.03 93.03999999999999 L 583.03 92.32 L 584.03 92.32 C 584.1608318427939 92.32677678420968 584.2894005962908 92.28392053304405 584.39 92.19999999999999 C 584.4855477565866 92.10115760033273 584.5361832539429 91.9673352144622 584.53 91.82999999999998 C 584.5400385090996 91.69207643128763 584.4888268296229 91.55673127838485 584.39 91.45999999999998 C 584.2894005962908 91.37607946695591 584.1608318427939 91.33322321579028 584.03 91.33999999999997 L 583.48 91.33999999999997 L 583.48 94.26999999999998 z M 584.87 92.59000000000003 L 585.69 94.27000000000004 L 584.58 94.27000000000004 L 583.83 92.59000000000003 z M 282.41 1.03 L 299.46000000000004 1.03 L 299.46000000000004 76.47 L 282.41 76.47 z M 380.43 38.75 Q 380.43 51.17 375.72 59.75 C 372.80310578572147 65.27224493540416 368.36450281456234 69.84272195887291 362.93 72.92 C 351.5835418465177 78.97333382309728 337.96645815348234 78.97333382309728 326.62 72.91999999999999 C 321.1840704604932 69.83106681795519 316.74593199223057 65.25065807823138 313.83 59.72 Q 309.12 51.06 309.12 38.72 Q 309.12 26.379999999999995 313.83 17.669999999999998 C 316.7407112457354 12.164284213963487 321.16445476623426 7.60522618577879 326.58 4.530000000000001 C 337.93000371688294 -1.5091388319100476 351.53999628311703 -1.509138831910036 362.89 4.530000000000005 C 368.3245028145623 7.607278041127076 372.7631057857214 12.177755064595814 375.68 17.699999999999974 Q 380.39 26.339999999999996 380.39 38.75 M 363.03999999999996 38.75 C 363.1695382257462 34.311419817203856 362.4113796315795 29.89166119650103 360.80999999999995 25.750000000000004 C 359.5429183589715 22.512947536704115 357.3389330340091 19.727500048599875 354.47999999999996 17.74999999999999 C 348.5151272138514 14.083201643078173 340.99487278614856 14.083201643078173 335.03 17.75 C 332.16783591897547 19.729024077828974 329.95776803929124 22.51336156404532 328.67999999999995 25.75 C 325.67252373067845 34.155755700016705 325.67252373067845 43.344244299983295 328.67999999999995 51.75 C 329.9535320908453 54.98908131290243 332.1644953839306 57.774546878994165 335.03 59.75 C 340.99487278614856 63.41679835692183 348.5151272138514 63.41679835692183 354.47999999999996 59.75 C 357.34230930631225 57.77610298081623 359.5472012208965 54.98950972383776 360.80999999999995 51.75 C 362.4100806167676 47.60798021314489 363.1681939663748 43.188485349963386 363.03999999999996 38.749999999999986 M 246.58 50.17 L 255.34 76.47 L 274.05 76.47 L 264.31 48.14 L 251.08 48.14 L 250.29000000000002 45.7 C 252.81000000000003 45.21 257.12 44.45 260.94 41.85 C 266.3713049937709 38.15514453797686 269.64194496013783 32.02876864669071 269.69 25.460000000000004 C 269.8046013493602 20.99015931496836 268.6760279236607 16.576260180714144 266.43 12.709999999999997 C 264.23499309036447 8.966202121229431 260.9771569038891 5.958968718329128 257.07 4.069999999999995 C 252.48859139659518 1.94848014639226 247.47659077844844 0.9214308393949739 242.43 1.0700000000000003 L 212 1.0700000000000003 L 212 76.47 L 229.06 76.47 L 229.06 50.17 z M 246.26000000000002 34.56 C 243.9377018149792 35.41388792518703 241.47318613639493 35.81445658919935 239.00000000000003 35.74000000000001 L 229.06000000000003 35.74 L 229.06000000000003 14.88 L 238.97000000000003 14.88 C 241.44496349137447 14.808763659832444 243.90939548624092 15.230266511368226 246.22000000000003 16.120000000000005 C 248.0472016694642 16.84672573853678 249.5905772008285 18.14456425354768 250.62000000000003 19.82 C 251.66967053936742 21.509032623306425 252.19191538623886 23.472673247542986 252.12000000000003 25.459999999999994 C 252.20145220130158 27.417339637192338 251.6852459192328 29.35311319495015 250.64000000000004 31.010000000000005 C 249.60549350481034 32.63868762253673 248.06759828691497 33.885155207817206 246.26000000000005 34.56 M 382.04 1.03 L 382.04 15.03 L 411.34000000000003 15.03 L 412.14000000000004 17.48 C 409.66 17.96 405.47 18.7 401.71000000000004 21.18 L 401.71000000000004 76.49000000000001 L 418.58000000000004 76.49000000000001 L 418.58000000000004 14.990000000000009 L 438.20000000000005 14.990000000000009 L 438.20000000000005 0.9900000000000091 z"
      stroke-linecap="round" />
  </g>
  <g transform="matrix(0.31 0 0 0.3 546.98 539.84)" id="d2952693-ccb7-41db-b2cb-19a91db0b3c2">
    <rect
      style="stroke: rgb(255,255,255); stroke-width: 0; stroke-dasharray: none; stroke-linecap: butt; stroke-dashoffset: 0; stroke-linejoin: miter; stroke-miterlimit: 4; fill: rgb(255,255;255); fill-rule: nonzero; opacity: 1;"
      vector-effect="non-scaling-stroke" x="-33.085" y="-33.085" rx="0" ry="0" width="66.17" height="66.17" />
  </g>
  <g transform="matrix(0.54 0 0 0.54 265.33 594.82)">
    <path
      style="stroke: rgb(255,255,255); stroke-width: 0; stroke-dasharray: none; stroke-linecap: butt; stroke-dashoffset: 0; stroke-linejoin: miter; stroke-miterlimit: 4; fill: rgb(255,255,255); fill-rule: nonzero; opacity: 1;"
      vector-effect="non-scaling-stroke" transform=" translate(-48.78, -49.51)"
      d="M 52.122 73.982 L 11.063 50.273 L 44.59 16.744 L 44.59 32.771 C 81.936 31.042 89.263 52.512 85.701 82.27600000000001 C 79.695 61.46600000000001 68.148 50.22300000000001 48.55899999999999 52.97000000000001 L 52.122 73.982 z"
      stroke-linecap="round" />
  </g>
</svg>